#!OML:ASF I:\golf\golf\golf 2\Subject 1\2002-09-07\Subject1.ASF
:FULLY-SPECIFIED
:DEGREES
263
root -5.81102 17.9255 4.4711 3.28407 38.6757 -10.9746
lowerback 4.90465 -8.57652 -15.0528
upperback 0.0165788 -12.1518 -4.03505
thorax -0.520767 -5.91176 4.32969
lowerneck -5.72032 21.2443 1.88042
upperneck 9.39274 30.2807 -13.863
head 6.23143 13.9822 -1.88486
rclavicle 6.86801e-014 4.77083e-014
rhumerus 23.6749 -25.2981 -50.4966
rradius 109.836
rwrist 6.51043
rhand -64.3067 63.0204
rfingers 7.12502
rthumb -36.2415 36.7636
lclavicle 6.86801e-014 4.77083e-014
lhumerus 113.262 -41.6018 42.9023
lradius 39.4172
lwrist -10.7641
lhand -37.2049 -2.52179
lfingers 7.12502
lthumb -190.272 -152.793
rfemur -28.846 19.5399 25.2551
rtibia 29.3913
rfoot -2.80116 23.9267
rtoes 30.8678
lfemur -6.14483 22.4991 5.23412
ltibia 36.8668
lfoot 3.82984 13.7433
ltoes -35.8834
264
root -5.81299 17.9274 4.46355 3.41194 38.7414 -10.8847
lowerback 4.88457 -8.52372 -15.0703
upperback 0.0424745 -12.0752 -4.10078
thorax -0.506423 -5.87471 4.26863
lowerneck -5.57166 21.1377 2.20364
upperneck 9.31676 30.1375 -14.1275
head 6.26162 13.9195 -2.01362
rclavicle 2.18663e-015 1.27222e-014
rhumerus 23.6654 -25.441 -50.5038
rradius 109.719
rwrist 5.9934
rhand -64.4358 62.8956
rfingers 7.12502
rthumb -36.3637 36.6693
lclavicle 2.18663e-015 1.27222e-014
lhumerus 113.323 -41.5958 42.7835
lradius 39.4976
lwrist -10.4609
lhand -36.932 -2.44254
lfingers 7.12502
lthumb -190.009 -152.701
rfemur -28.9327 19.4091 25.1402
rtibia 29.3416
rfoot -2.68075 24.0019
rtoes 31.1036
lfemur -6.28121 22.4389 5.07989
ltibia 36.8808
lfoot 3.80304 13.603
ltoes -36.5694
265
root -5.81558 17.9307 4.45477 3.51229 38.8256 -10.8352
lowerback 4.94289 -8.488 -15.1014
upperback 0.0329123 -12.0419 -4.09376
thorax -0.547424 -5.85477 4.3036
lowerneck -5.58842 21.0886 2.33345
upperneck 9.42675 30.0971 -14.2078
head 6.32816 13.8893 -2.0407
rclavicle -3.51849e-014 8.26944e-014
rhumerus 23.6915 -25.465 -50.4768
rradius 109.583
rwrist 5.47094
rhand -64.7693 63.3109
rfingers 7.12502
rthumb -36.6794 37.1642
lclavicle -3.51849e-014 8.26944e-014
lhumerus 113.241 -41.5996 42.8455
lradius 39.4776
lwrist -10.6077
lhand -36.9578 -2.1309
lfingers 7.12502
lthumb -190.034 -152.39
rfemur -29.0232 19.2645 25.05
rtibia 29.2922
rfoot -2.40241 24.0492
rtoes 31.8518
lfemur -6.43622 22.4241 4.95859
ltibia 36.8961
lfoot 2.93853 14.0491
ltoes -33.7784
266
root -5.8172 17.933 4.44352 3.50796 38.8992 -10.9153
lowerback 5.07253 -8.47876 -15.0016
upperback 0.00225586 -12.0552 -4.04449
thorax -0.659109 -5.85444 4.33089
lowerneck -5.56337 21.1596 2.14155
upperneck 9.47007 30.1858 -14.0371
head 6.2897 13.9361 -1.97312
rclavicle 5.30755e-014 4.45278e-014
rhumerus 23.7574 -25.3285 -50.4535
rradius 109.459
rwrist 4.71851
rhand -64.9662 63.2765
rfingers 7.12502
rthumb -36.8656 37.1774
lclavicle 5.30755e-014 4.45278e-014
lhumerus 113.103 -41.5421 42.9146
lradius 39.3164
lwrist -11.0083
lhand -37.1503 -1.60198
lfingers 7.12502
lthumb -190.22 -151.87
rfemur -29.0809 19.1092 25.0807
rtibia 29.2329
rfoot -2.24204 24.1164
rtoes 32.1128
lfemur -6.57778 22.5153 4.96081
ltibia 36.9211
lfoot 2.18141 14.4368
ltoes -30.8009
267
root -5.82068 17.933 4.43264 3.47337 38.9837 -10.988
lowerback 5.14816 -8.47941 -14.9589
upperback 0.0732137 -12.06 -3.99048
thorax -0.620719 -5.8638 4.36986
lowerneck -5.76664 21.2337 1.92576
upperneck 9.62894 30.3077 -13.8627
head 6.32352 13.9761 -1.86631
rclavicle 1.20662e-013 5.08889e-014
rhumerus 24.0185 -25.2211 -50.6099
rradius 109.259
rwrist 3.96138
rhand -64.9944 62.4826
rfingers 7.12502
rthumb -36.8924 36.3904
lclavicle 1.20662e-013 5.08889e-014
lhumerus 113.022 -41.4369 43.017
lradius 39.0836
lwrist -11.2533
lhand -37.097 -1.57637
lfingers 7.12502
lthumb -190.168 -151.842
rfemur -29.0958 18.9879 25.125
rtibia 29.1535
rfoot -2.24686 24.1425
rtoes 31.9568
lfemur -6.70054 22.6011 4.97306
ltibia 36.9652
lfoot 2.53289 14.2059
ltoes -32.4613
268
root -5.82699 17.9331 4.42174 3.43131 39.0907 -11.0437
lowerback 5.2454 -8.48901 -14.9996
upperback 0.152496 -12.083 -3.91634
thorax -0.561119 -5.88326 4.47178
lowerneck -5.97068 21.2598 1.83456
upperneck 9.78844 30.3886 -13.8768
head 6.4037 13.9865 -1.82006
rclavicle 1.68967e-014 4.77083e-014
rhumerus 24.421 -25.0187 -50.9616
rradius 108.995
rwrist 3.37588
rhand -64.763 62.2257
rfingers 7.12502
rthumb -36.6734 36.0775
lclavicle 1.68967e-014 4.77083e-014
lhumerus 112.807 -41.3655 43.3009
lradius 38.8524
lwrist -11.3727
lhand -36.7066 -1.78009
lfingers 7.12502
lthumb -189.792 -152.028
rfemur -29.1056 18.9688 25.1359
rtibia 29.0706
rfoot -2.17074 24.0463
rtoes 32.038
lfemur -6.82539 22.633 4.98038
ltibia 37.0288
lfoot 2.49515 14.1094
ltoes -32.8264
269
root -5.83336 17.9338 4.4079 3.32951 39.235 -11.2334
lowerback 5.39163 -8.53338 -14.88
upperback 0.16848 -12.1625 -3.81343
thorax -0.612033 -5.92265 4.53882
lowerneck -5.95906 21.2722 1.61195
upperneck 9.65775 30.4024 -13.9265
head 6.33763 13.9943 -1.82213
rclavicle -5.82439e-014 -6.67916e-014
rhumerus 24.8277 -24.697 -51.4072
rradius 108.728
rwrist 3.04733
rhand -64.4473 63.2768
rfingers 7.12502
rthumb -36.3746 37.0532
lclavicle -5.82439e-014 -6.67916e-014
lhumerus 112.401 -41.2741 43.6199
lradius 38.7297
lwrist -11.3346
lhand -36.1135 -1.66761
lfingers 7.12502
lthumb -189.219 -151.889
rfemur -29.1551 19.0282 25.2088
rtibia 28.9998
rfoot -2.11976 23.834
rtoes 31.8805
lfemur -7.01941 22.7043 5.08444
ltibia 37.1128
lfoot 1.90363 14.2783
ltoes -31.0866
270
root -5.83855 17.9327 4.39184 3.24463 39.4098 -11.4823
lowerback 5.46609 -8.57972 -14.6704
upperback 0.195505 -12.2249 -3.71502
thorax -0.633375 -5.9571 4.54429
lowerneck -6.02087 21.2866 1.36766
upperneck 9.58475 30.4115 -13.8465
head 6.27664 14.0002 -1.78013
rclavicle 1.26029e-013 -3.81667e-014
rhumerus 25.1906 -24.5148 -51.8573
rradius 108.46
rwrist 2.7297
rhand -64.6048 62.3123
rfingers 7.12502
rthumb -36.5237 36.1262
lclavicle 1.26029e-013 -3.81667e-014
lhumerus 112.043 -41.2011 43.8609
lradius 38.6231
lwrist -11.3889
lhand -35.5369 -1.48747
lfingers 7.12502
lthumb -188.663 -151.685
rfemur -29.2733 19.0019 25.32
rtibia 28.9473
rfoot -2.19159 23.6901
rtoes 31.4555
lfemur -7.28888 22.8436 5.19841
ltibia 37.2187
lfoot 2.08935 14.0316
ltoes -32.6372
271
root -5.84286 17.9305 4.37218 3.17426 39.6254 -11.6824
lowerback 5.54458 -8.57065 -14.5293
upperback 0.229821 -12.2168 -3.65621
thorax -0.656937 -5.95537 4.54555
lowerneck -5.90534 21.2854 1.41312
upperneck 9.53489 30.3889 -13.8304
head 6.24403 14.0033 -1.79854
rclavicle 3.75703e-014 2.8625e-014
rhumerus 25.3688 -24.4697 -52.2139
rradius 108.318
rwrist 1.61535
rhand -64.2027 61.9603
rfingers 7.12502
rthumb -36.1429 35.679
lclavicle 3.75703e-014 2.8625e-014
lhumerus 111.851 -41.2902 44.059
lradius 38.3378
lwrist -11.6379
lhand -35.2273 -1.55533
lfingers 7.12502
lthumb -188.364 -151.741
rfemur -29.4038 18.7888 25.4248
rtibia 28.9321
rfoot -2.24166 23.6938
rtoes 31.3222
lfemur -7.54876 22.9821 5.25523
ltibia 37.3309
lfoot 2.24709 13.7058
ltoes -34.1487
272
root -5.84804 17.9268 4.34956 3.12976 39.8602 -11.7842
lowerback 5.70643 -8.5498 -14.4834
upperback 0.261226 -12.2131 -3.59814
thorax -0.710175 -5.95257 4.60732
lowerneck -5.7442 21.2987 1.44716
upperneck 9.41427 30.3815 -13.8727
head 6.1908 14.0176 -1.8375
rclavicle 1.21259e-013 7.95139e-014
rhumerus 25.5856 -24.4001 -52.588
rradius 108.151
rwrist 0.294673
rhand -63.7587 62.0964
rfingers 7.12502
rthumb -35.7223 35.7121
lclavicle 1.21259e-013 7.95139e-014
lhumerus 111.698 -41.3543 44.2655
lradius 37.9374
lwrist -11.6847
lhand -34.9513 -1.86568
lfingers 7.12502
lthumb -188.098 -152.041
rfemur -29.529 18.5276 25.4576
rtibia 28.9588
rfoot -2.25339 23.6812
rtoes 31.202
lfemur -7.77586 23.0428 5.23432
ltibia 37.4094
lfoot 1.63362 13.7265
ltoes -32.4594
273
root -5.85505 17.9225 4.32885 3.18364 40.0651 -11.7799
lowerback 5.81835 -8.53215 -14.5384
upperback 0.309826 -12.2069 -3.54481
thorax -0.698377 -5.95242 4.70246
lowerneck -5.92571 21.2294 1.57054
upperneck 9.64399 30.3443 -13.9619
head 6.32354 13.9689 -1.83936
rclavicle 1.59028e-014 -1.11319e-013
rhumerus 25.846 -24.2787 -53.0169
rradius 107.801
rwrist -0.28586
rhand -63.9242 61.6101
rfingers 7.12502
rthumb -35.8791 35.264
lclavicle 1.59028e-014 -1.11319e-013
lhumerus 111.555 -41.3689 44.4169
lradius 37.6777
lwrist -11.3906
lhand -34.2641 -2.01559
lfingers 7.12502
lthumb -187.435 -152.166
rfemur -29.6954 18.4146 25.3641
rtibia 29.003
rfoot -2.35775 23.5327
rtoes 30.742
lfemur -8.02957 23.0894 5.09757
ltibia 37.4425
lfoot 1.25142 13.7584
ltoes -31.6655
274
root -5.86056 17.9242 4.30791 3.29709 40.3271 -11.6713
lowerback 5.87692 -8.50117 -14.6809
upperback 0.387576 -12.1736 -3.54578
thorax -0.624955 -5.94243 4.77341
lowerneck -6.07725 21.0748 1.88252
upperneck 9.96483 30.203 -14.1068
head 6.50904 13.8667 -1.8821
rclavicle 1.61016e-014 2.8625e-014
rhumerus 25.9656 -24.2308 -53.4574
rradius 107.451
rwrist -0.711045
rhand -64.2166 61.7279
rfingers 7.12502
rthumb -36.1561 35.4499
lclavicle 1.61016e-014 2.8625e-014
lhumerus 111.531 -41.4674 44.4173
lradius 37.4337
lwrist -11.2409
lhand -33.7186 -1.86556
lfingers 7.12502
lthumb -186.908 -151.998
rfemur -29.8428 18.3172 25.158
rtibia 29.0449
rfoot -2.58474 23.2891
rtoes 30.169
lfemur -8.30684 23.1405 4.827
ltibia 37.4352
lfoot 1.13712 13.7835
ltoes -32.3036
275
root -5.86282 17.9296 4.28303 3.42867 40.6743 -11.5277
lowerback 5.92343 -8.45836 -14.7392
upperback 0.478317 -12.1165 -3.62119
thorax -0.568723 -5.9196 4.72539
lowerneck -5.80232 20.9875 2.05604
upperneck 9.79049 30.0338 -14.1575
head 6.42754 13.8192 -1.97084
rclavicle -2.22639e-014 9.54166e-015
rhumerus 25.9664 -24.337 -53.9525
rradius 107.165
rwrist -1.3439
rhand -64.1701 62.967
rfingers 7.12502
rthumb -36.1121 36.6781
lclavicle -2.22639e-014 9.54166e-015
lhumerus 111.67 -41.6224 44.1941
lradius 37.1201
lwrist -11.4529
lhand -33.6472 -1.37332
lfingers 7.12502
lthumb -186.839 -151.504
rfemur -29.9672 18.0109 24.9456
rtibia 29.0601
rfoot -2.75378 23.1565
rtoes 29.7197
lfemur -8.62452 23.2084 4.49755
ltibia 37.3985
lfoot 0.612863 13.9358
ltoes -31.2994
